<svg width="640" height="55" viewBox="0 0 640 55" fill="none" xmlns="http://www.w3.org/2000/svg">
<path d="M49.984 55H58.174L33.37 0.399996H25.648L0.922 55H8.956L14.962 41.35H43.978L49.984 55ZM17.692 35.11L29.47 8.356L41.248 35.11H17.692ZM111.559 55H134.569C152.119 55 164.053 43.924 164.053 27.7C164.053 11.476 152.119 0.399996 134.569 0.399996H111.559V55ZM119.359 48.214V7.186H134.101C147.595 7.186 156.253 15.454 156.253 27.7C156.253 39.946 147.595 48.214 134.101 48.214H119.359ZM229.04 48.214V30.586H256.418V23.956H229.04V7.186H259.772V0.399996H221.24V55H260.864V48.214H229.04ZM340.028 0.399996H318.734V55H326.534V38.464H340.028C354.224 38.464 362.804 31.288 362.804 19.432C362.804 7.576 354.224 0.399996 340.028 0.399996ZM339.794 31.678H326.534V7.186H339.794C349.778 7.186 355.004 11.632 355.004 19.432C355.004 27.232 349.778 31.678 339.794 31.678ZM428.594 55H436.316V7.186H455.036V0.399996H409.874V7.186H428.594V55ZM508.771 55H546.133V48.214H516.571V0.399996H508.771V55ZM608.123 48.214V30.586H635.501V23.956H608.123V7.186H638.855V0.399996H600.323V55H639.947V48.214H608.123Z" fill="#FECACA" fill-opacity="0.1"/>
</svg>
