<svg width="19" height="19" viewBox="0 0 19 19" fill="none" xmlns="http://www.w3.org/2000/svg">
<g clip-path="url(#clip0_38_1922)">
<path d="M6.99963 0.691904C7.72961 1.5636 9.51713 3.83733 10.9468 6.77669C12.7341 6.2739 14.611 5.38227 16.4534 3.90469L16.8983 3.54795C15.1555 1.38592 12.4867 0 9.49995 0C8.54713 0 7.62686 0.141609 6.75842 0.403861L6.99963 0.691904Z" fill="#2E294E"/>
<path d="M17.15 4.7732C15.3752 6.19649 13.4591 7.21196 11.4221 7.81354C11.706 8.47141 11.9533 9.12465 12.1633 9.77087C14.0363 9.61156 16.1518 9.87385 18.4574 10.5523L18.9256 10.6901C18.9746 10.3001 19 9.90298 19 9.50001C19 7.6478 18.4667 5.9181 17.5463 4.45532L17.15 4.7732Z" fill="#2E294E"/>
<path d="M1.15501 6.32402C2.09903 6.68205 4.19115 7.33737 6.82896 7.33744C7.77413 7.33748 8.78944 7.25316 9.84706 7.04108C8.53491 4.41166 6.94288 2.35803 6.14614 1.40654L5.65114 0.81543C3.34758 1.84035 1.52465 3.75553 0.621338 6.12162L1.15501 6.32402Z" fill="#2E294E"/>
<path d="M3.65631 16.5142C4.0748 15.2683 5.12325 12.9436 7.44336 11.3714C8.50046 10.6551 9.71167 10.1692 11.0522 9.92043C10.8408 9.2912 10.6003 8.67986 10.3408 8.09142C9.34262 8.31044 8.31751 8.4342 7.26743 8.46051C7.12682 8.46407 6.98714 8.46578 6.84917 8.46578C4.08879 8.46581 1.86738 7.78489 0.760186 7.36497L0.285779 7.18506C0.0994903 7.92632 0 8.70168 0 9.49994C0 12.4792 1.37895 15.1421 3.5317 16.8852L3.65631 16.5142Z" fill="#2E294E"/>
<path d="M18.1431 11.6203C15.9222 10.9668 14.055 10.763 12.486 10.8666C12.6272 11.4045 12.7416 11.9364 12.8285 12.4607C13.1635 14.4817 13.0951 16.4138 12.6249 18.2035L12.5473 18.4988C15.5865 17.4669 17.9388 14.9354 18.7202 11.7902L18.1431 11.6203Z" fill="#2E294E"/>
<path d="M11.5482 17.9205C12.1655 15.571 11.9742 13.1972 11.3788 10.9968C7.00467 11.7537 5.313 15.0783 4.71161 16.8686L4.479 17.561C5.93681 18.4723 7.65783 18.9999 9.50001 18.9999C10.1189 18.9999 10.724 18.9398 11.3102 18.8262L11.5482 17.9205Z" fill="#2E294E"/>
</g>
<defs>
<clipPath id="clip0_38_1922">
<rect width="19" height="19" fill="white"/>
</clipPath>
</defs>
</svg>
