<svg width="25" height="17" viewBox="0 0 25 17" fill="none" xmlns="http://www.w3.org/2000/svg">
<path d="M22.8027 0H2.19727C0.988184 0 0 0.923578 0 2.06268V14.4388C0 15.5783 0.988818 16.5015 2.19727 16.5015H22.8027C24.0118 16.5015 25 15.5779 25 14.4388V2.06268C25 0.923303 24.0113 0 22.8027 0ZM22.4653 1.37512C21.7549 2.04421 13.4104 9.90317 13.0676 10.226C12.7812 10.4957 12.2189 10.4958 11.9324 10.226L2.53467 1.37512H22.4653ZM1.46484 14.186V2.31548L7.76685 8.25073L1.46484 14.186ZM2.53467 15.1263L8.80098 9.22468L10.895 11.1968C11.7531 12.005 13.2473 12.0047 14.1051 11.1968L16.1991 9.22473L22.4653 15.1263H2.53467ZM23.5352 14.186L17.2332 8.25073L23.5352 2.31548V14.186Z" fill="white"/>
</svg>
