<svg width="45" height="45" viewBox="0 0 45 45" fill="none" xmlns="http://www.w3.org/2000/svg">
<path d="M36.5193 39.1938L34.8391 34.1523C34.2519 32.3923 32.7538 31.0931 30.9277 30.7606L26.0771 29.8781V29.5021C26.9212 29.0122 27.6558 28.3568 28.2408 27.5809H29.7062C30.9066 27.5809 31.8836 26.6039 31.8836 25.4035V16.6938C31.8836 11.4912 27.6507 7.2583 22.4481 7.2583C17.2455 7.2583 13.0126 11.4912 13.0126 16.6938V21.7744C13.0126 23.1738 14.0077 24.3445 15.3272 24.6174C15.7344 26.7034 17.0379 28.4685 18.8191 29.5021V29.8781L13.9678 30.7606C12.1424 31.0931 10.6436 32.3923 10.0571 34.1523L9.76681 35.024L7.29471 32.5519C7.01164 32.2689 7.01164 31.808 7.29471 31.5249L10.1616 28.6587L4.78052 23.2776L1.54052 26.5176C0.580999 27.4771 0.0526123 28.7531 0.0526123 30.1103C0.0526123 31.4676 0.580999 32.7428 1.54052 33.7023L11.3498 43.5116C12.3093 44.4711 13.5853 45.0002 14.9425 45.0002C16.2998 45.0002 17.575 44.4711 18.512 43.5334L22.0475 40.2941L20.945 39.1938H36.5193ZM30.432 25.4035C30.432 25.8041 30.1061 26.1293 29.7062 26.1293H29.0958C29.3062 25.6495 29.4659 25.1436 29.569 24.6174C29.8796 24.5528 30.1656 24.4294 30.432 24.2741V25.4035ZM29.7062 23.0243V20.5246C30.138 20.7764 30.432 21.2395 30.432 21.7744C30.432 22.3093 30.138 22.7724 29.7062 23.0243ZM15.19 23.0243C14.7582 22.7724 14.4642 22.3093 14.4642 21.7744C14.4642 21.2395 14.7582 20.7764 15.19 20.5246V23.0243ZM15.19 18.1454V18.9743C14.9316 19.0418 14.6892 19.1434 14.4642 19.2748V16.6938C14.4642 12.2918 18.0461 8.70991 22.4481 8.70991C26.8501 8.70991 30.432 12.2918 30.432 16.6938V19.2748C30.207 19.1434 29.9646 19.041 29.7062 18.9743V18.1454H28.9804C26.8341 18.1454 24.8164 17.3093 23.298 15.7916L22.4481 14.9417L21.5982 15.7916C20.0798 17.3093 18.062 18.1454 15.9158 18.1454H15.19ZM16.6416 23.226V19.5694C18.8212 19.4054 20.8535 18.5061 22.4481 16.9899C24.0427 18.5061 26.075 19.4061 28.2546 19.5694V23.226C28.2546 24.2843 27.9657 25.2743 27.4692 26.1293H22.4481V27.5809H26.276C25.2526 28.4816 23.915 29.0325 22.4481 29.0325C19.2466 29.0325 16.6416 26.4276 16.6416 23.226ZM24.6255 30.1495V30.1836L22.4481 32.361L20.2707 30.1836V30.1495C20.9587 30.3658 21.6896 30.4841 22.4481 30.4841C23.2066 30.4841 23.9375 30.3658 24.6255 30.1495ZM11.4333 34.611C11.852 33.3539 12.9226 32.4256 14.2269 32.1876L19.3003 31.2658L22.4481 34.4136L25.5952 31.2665L30.6679 32.1883C31.9721 32.4264 33.0427 33.3539 33.4615 34.6118L34.5059 37.7422H19.4933L16.6663 34.9152L13.525 37.7567C13.2514 38.0318 12.7731 38.0318 12.4987 37.7567L10.9136 36.1715L11.4333 34.611ZM4.77979 25.3302L8.10834 28.6587L7.32011 29.4469L3.99156 26.1184L4.77979 25.3302ZM17.5068 42.4868C16.8216 43.1705 15.91 43.5486 14.9411 43.5486C13.9721 43.5486 13.0605 43.1705 12.3746 42.4853L2.56535 32.6768C1.88019 31.9916 1.50277 31.08 1.50277 30.111C1.50277 29.1414 1.88019 28.2297 2.56535 27.5446L2.96455 27.1454L6.2931 30.4739L6.26697 30.5001C5.4185 31.3493 5.4185 32.7305 6.26697 33.5797L11.4717 38.7844C11.8833 39.1952 12.4298 39.4224 13.0119 39.4224C13.594 39.4224 14.1405 39.196 14.5252 38.8098L14.5796 38.7612L17.9234 42.105L17.5068 42.4868ZM18.9947 41.1222L15.6582 37.7857L16.617 36.9191L19.9477 40.2498L18.9947 41.1222Z" fill="#2E294E"/>
<path d="M42.7707 0H32.6094C31.4089 0 30.432 0.976935 30.432 2.17742V7.98387C30.432 9.18435 31.4089 10.1613 32.6094 10.1613H34.5481L33.7976 14.5386L40.8016 10.1613H42.7707C43.9712 10.1613 44.9481 9.18435 44.9481 7.98387V2.17742C44.9481 0.976935 43.9712 0 42.7707 0ZM43.4965 7.98387C43.4965 8.38379 43.1706 8.70968 42.7707 8.70968H40.385L35.7754 11.5904L36.2697 8.70968H32.6094C32.2095 8.70968 31.8836 8.38379 31.8836 7.98387V2.17742C31.8836 1.7775 32.2095 1.45161 32.6094 1.45161H42.7707C43.1706 1.45161 43.4965 1.7775 43.4965 2.17742V7.98387Z" fill="#2E294E"/>
<path d="M42.0449 2.90332H33.3352V4.35493H42.0449V2.90332Z" fill="#2E294E"/>
<path d="M39.1417 5.80664H33.3352V7.25825H39.1417V5.80664Z" fill="#2E294E"/>
<path d="M42.0449 5.80664H40.5933V7.25825H42.0449V5.80664Z" fill="#2E294E"/>
<path d="M22.4481 2.17725C12.9647 2.17725 4.79575 8.73708 2.67204 17.8873L1.29664 15.5945L0.0518799 16.3414L2.60309 20.5924L6.85414 18.0412L6.10728 16.7964L4.14035 17.9766C6.19728 9.60588 13.7246 3.62886 22.4481 3.62886C24.3548 3.62886 26.2361 3.91192 28.0397 4.47079L28.4694 3.0845C26.5264 2.48208 24.5007 2.17725 22.4481 2.17725Z" fill="#2E294E"/>
<path d="M44.5953 16.0707L40.3443 13.5195L37.7938 17.7713L39.0386 18.5182L40.3087 16.401C40.9772 18.357 41.3191 20.4031 41.3191 22.4999C41.3191 26.8163 39.8239 31.0361 37.1101 34.3814L38.2373 35.2959C41.1608 31.693 42.7707 27.148 42.7707 22.4999C42.7707 20.2797 42.4128 18.1117 41.7153 16.0359L43.8485 17.3155L44.5953 16.0707Z" fill="#2E294E"/>
</svg>
