<svg width="17" height="17" viewBox="0 0 17 17" fill="none" xmlns="http://www.w3.org/2000/svg">
<g clip-path="url(#clip0_38_1895)">
<path d="M13.4416 3.14575C13.2141 3.14575 13.0289 3.33093 13.0289 3.55847C13.0289 3.78601 13.2141 3.97118 13.4416 3.97118C13.6692 3.97118 13.8544 3.78604 13.8544 3.55847C13.8544 3.33089 13.6692 3.14575 13.4416 3.14575Z" fill="#2E294E"/>
<path d="M8.50004 4.84106C6.48255 4.84106 4.84119 6.48243 4.84119 8.49992C4.84119 10.5174 6.48255 12.1588 8.50004 12.1588C10.5176 12.1588 12.1589 10.5174 12.1589 8.49995C12.1589 6.48246 10.5176 4.84106 8.50004 4.84106Z" fill="#2E294E"/>
<path d="M12.3397 0H4.66029C2.0906 0 0 2.0906 0 4.66032V12.3397C0 14.9094 2.0906 17 4.66029 17H12.3397C14.9094 17 17 14.9094 17 12.3397V4.66032C17 2.0906 14.9094 0 12.3397 0ZM8.5 13.1628C5.92892 13.1628 3.83725 11.0711 3.83725 8.5C3.83725 5.92892 5.92895 3.83729 8.5 3.83729C11.0711 3.83729 13.1628 5.92895 13.1628 8.5C13.1628 11.0711 11.0711 13.1628 8.5 13.1628ZM13.4417 4.97502C12.6605 4.97502 12.025 4.33952 12.025 3.55838C12.025 2.77724 12.6605 2.1417 13.4417 2.1417C14.2228 2.1417 14.8583 2.77721 14.8583 3.55835C14.8583 4.33948 14.2228 4.97502 13.4417 4.97502Z" fill="#2E294E"/>
</g>
<defs>
<clipPath id="clip0_38_1895">
<rect width="17" height="17" fill="white"/>
</clipPath>
</defs>
</svg>
