<svg width="25" height="25" viewBox="0 0 25 25" fill="none" xmlns="http://www.w3.org/2000/svg">
<g clip-path="url(#clip0_38_1859)">
<path d="M9.11456 18.3459V23.1772C9.11456 23.5147 9.33123 23.8137 9.65206 23.9199C9.73227 23.9459 9.81456 23.9584 9.89581 23.9584C10.1396 23.9584 10.375 23.8439 10.525 23.6397L13.351 19.7939L9.11456 18.3459Z" fill="#2E294E"/>
<path d="M24.6719 0.144884C24.4323 -0.0249077 24.1178 -0.0478244 23.8573 0.088634L0.419838 12.3282C0.142755 12.473 -0.020787 12.7688 0.00212966 13.0803C0.026088 13.3928 0.23338 13.6595 0.528171 13.7605L7.0438 15.9876L20.9198 4.12301L10.1823 17.0595L21.1021 20.7918C21.1834 20.8188 21.2688 20.8334 21.3542 20.8334C21.4959 20.8334 21.6365 20.7949 21.7605 20.7199C21.9584 20.5991 22.0928 20.3959 22.1271 20.1678L24.9917 0.896967C25.0344 0.605301 24.9115 0.315717 24.6719 0.144884Z" fill="#2E294E"/>
</g>
<defs>
<clipPath id="clip0_38_1859">
<rect width="25" height="25" fill="white"/>
</clipPath>
</defs>
</svg>
